# xmcd CD database file
# Generated: Sun Sep 16 23:57:46 2001 by KSCD
# 
# Track frame offsets:
#       150
#       8336
#       33223
#       44297
#       74217
#       114406
#       133096
#       138130
#       161345
#       177889
#       208039
#       227756
#
# Disc length: 3146 seconds
#
# Revision: 1
# Processed by: cddbd v1.4PL0 Copyright (c) Steve Scherf et al.
# Submitted via: Kscd 1.3.2
#
DISCID=9a0c480c
DTITLE=Morcheeba - Who can you trust?
DYEAR=1900
DGENRE=
TTITLE0=Moog Island
TTITLE1=Trigger Hippie
TTITLE2=Post Humous
TTITLE3=Tape Loop
TTITLE4=Never an Easy Way
TTITLE5=Howling
TTITLE6=Small Town
TTITLE7=Enjoy the Wait
TTITLE8=Col
TTITLE9=Who Can You Trust?
TTITLE10=Almost Done
TTITLE11=End Theme
EXTD=
EXTT0=
EXTT1=
EXTT2=
EXTT3=
EXTT4=
EXTT5=
EXTT6=
EXTT7=
EXTT8=
EXTT9=
EXTT10=
EXTT11=
PLAYORDER=
